<svg width="24" height="24" viewBox="0 0 24 24" fill="none" xmlns="http://www.w3.org/2000/svg">
<path d="M19.6172 11.9883L20.4258 11.0391L20.0742 10.7812L20.6367 10.2656L20.2031 9.9375L20.7656 9.51562L20.4023 9.23437L20.9883 6.375L20.0977 3.72656M20.0977 3.72656L14.3789 5.84766H9.60938L3.89063 3.72656L3 6.375L3.59766 9.23437L3.22266 9.51562L3.79688 9.9375L3.36328 10.2656L3.92578 10.7812L3.57422 11.0391L4.38281 11.9883L3.15234 15.7852L4.28906 19.6641L8.28516 18.5625L9.05859 19.1953L10.6406 20.2734H13.3477L14.9297 19.1953L15.7031 18.5625L19.7109 19.6641L20.8594 15.7852L19.6172 11.9883" fill="#F5841F"/>
<path d="M20.0977 3.72656L13.0781 8.89453L14.3789 5.84766L20.0977 3.72656Z" fill="#E27625"/>
<path d="M3.89062 3.72656L10.8516 8.94141L9.60938 5.84766L3.89062 3.72656Z" fill="#E27625"/>
<path d="M17.5781 15.7148L15.7031 18.5508L19.7109 19.6523L20.8594 15.7734L17.5781 15.7148Z" fill="#E27625"/>
<path d="M3.15234 15.7734L4.28906 19.6523L8.28516 18.5508L6.42188 15.7148L3.15234 15.7734Z" fill="#E27625"/>
<path d="M8.07422 10.9102L6.96094 12.5859L10.9219 12.7617L10.793 8.51953L8.07422 10.9102Z" fill="#E27625"/>
<path d="M15.9258 10.9102L13.1602 8.47266L13.0781 12.7617L17.0391 12.5859L15.9258 10.9102Z" fill="#E27625"/>
<path d="M8.28516 18.5508L10.6875 17.4023L8.61328 15.8086L8.28516 18.5508Z" fill="#E27625"/>
<path d="M13.3125 17.4023L15.7031 18.5508L15.375 15.8086L13.3125 17.4023Z" fill="#E27625"/>
<path d="M15.7031 18.5508L13.3125 17.4023L13.5117 18.9492L13.4883 19.6055L15.7031 18.5508Z" fill="#D7C1B3"/>
<path d="M8.28516 18.5508L10.5117 19.6055L10.5 18.9492L10.6875 17.4023L8.28516 18.5508Z" fill="#D7C1B3"/>
<path d="M10.5469 14.7773L8.56641 14.2031L9.97266 13.5586L10.5469 14.7773Z" fill="#2F343B"/>
<path d="M13.4414 14.7773L14.0273 13.5586L15.4336 14.2031L13.4414 14.7773Z" fill="#2F343B"/>
<path d="M8.28516 18.5508L8.63672 15.7148L6.42188 15.7734L8.28516 18.5508Z" fill="#CC6228"/>
<path d="M15.3633 15.7148L15.7031 18.5508L17.5781 15.7734L15.3633 15.7148Z" fill="#CC6228"/>
<path d="M17.0391 12.5859L13.0781 12.7617L13.4414 14.7773L14.0273 13.5586L15.4336 14.2031L17.0391 12.5859Z" fill="#CC6228"/>
<path d="M8.56641 14.2031L9.97266 13.5586L10.5469 14.7773L10.9219 12.7617L6.96094 12.5859L8.56641 14.2031Z" fill="#CC6228"/>
<path d="M6.96094 12.5859L8.61328 15.8086L8.56641 14.2031L6.96094 12.5859Z" fill="#E27625"/>
<path d="M15.4336 14.2031L15.375 15.8086L17.0391 12.5859L15.4336 14.2031Z" fill="#E27625"/>
<path d="M10.9219 12.7617L10.5469 14.7773L11.0156 17.168L11.1211 14.0273L10.9219 12.7617Z" fill="#E27625"/>
<path d="M13.0781 12.7617L12.8789 14.0156L12.9727 17.168L13.4414 14.7773L13.0781 12.7617Z" fill="#E27625"/>
<path d="M13.4414 14.7773L12.9727 17.168L13.3125 17.4023L15.375 15.8086L15.4336 14.2031L13.4414 14.7773Z" fill="#F5841F"/>
<path d="M8.56641 14.2031L8.61328 15.8086L10.6875 17.4023L11.0156 17.168L10.5469 14.7773L8.56641 14.2031Z" fill="#F5841F"/>
<path d="M13.4883 19.6055L13.5117 18.9492L13.3242 18.7969H10.6641L10.5 18.9492L10.5117 19.6055L8.28516 18.5508L9.05859 19.1836L10.6406 20.2734H13.3477L14.9297 19.1836L15.7031 18.5508L13.4883 19.6055Z" fill="#C0AD9E"/>
<path d="M13.3125 17.4023L12.9727 17.168H11.0156L10.6875 17.4023L10.5 18.9492L10.6641 18.7969H13.3242L13.5117 18.9492L13.3125 17.4023Z" fill="#2F343B"/>
<path d="M20.4023 9.23438L20.9883 6.375L20.0977 3.72656L13.3125 8.71875L15.9258 10.9102L19.6172 11.9883L20.4258 11.0391L20.0742 10.7813L20.6367 10.2773L20.2031 9.9375L20.7656 9.51562L20.4023 9.23438Z" fill="#763E1A"/>
<path d="M3 6.375L3.59766 9.23438L3.22266 9.51562L3.78516 9.94922L3.35156 10.2773L3.91406 10.7813L3.5625 11.0391L4.38281 11.9883L8.07422 10.9102L10.6875 8.71875L3.89062 3.72656L3 6.375Z" fill="#763E1A"/>
<path d="M19.6172 11.9883L15.9258 10.9102L17.0391 12.5859L15.375 15.8086L17.5781 15.7734H20.8594L19.6172 11.9883Z" fill="#F5841F"/>
<path d="M8.07422 10.9102L4.38281 11.9883L3.15234 15.7734H6.42187L8.61328 15.8086L6.96094 12.5859L8.07422 10.9102Z" fill="#F5841F"/>
<path d="M13.0781 12.7617L13.3125 8.71875L14.3789 5.84766H9.60938L10.6875 8.71875L10.9219 12.7617L11.0156 14.0273V17.168H12.9727L12.9844 14.0273L13.0781 12.7617Z" fill="#F5841F"/>
</svg>
