<svg width="24" height="24" viewBox="0 0 24 24" fill="none" xmlns="http://www.w3.org/2000/svg">
<path d="M18.9419 5.88613C17.6472 5.31705 16.2629 4.90345 14.8158 4.66797C14.638 4.96987 14.4303 5.37592 14.2872 5.69895C12.7487 5.48159 11.2244 5.48159 9.71429 5.69895C9.57116 5.37592 9.35876 4.96987 9.17947 4.66797C7.73067 4.90345 6.34479 5.31856 5.05016 5.88915C2.43887 9.59646 1.73099 13.2117 2.08493 16.7756C3.81688 17.9908 5.49534 18.7289 7.14548 19.2119C7.55291 18.6851 7.91628 18.1251 8.22933 17.5349C7.63314 17.322 7.06211 17.0594 6.52255 16.7545C6.6657 16.6549 6.8057 16.5507 6.94099 16.4435C10.2319 17.8896 13.8074 17.8896 17.059 16.4435C17.1958 16.5507 17.3358 16.6549 17.4774 16.7545C16.9362 17.0609 16.3637 17.3235 15.7674 17.5364C16.0805 18.1251 16.4423 18.6866 16.8513 19.2134C18.503 18.7304 20.183 17.9923 21.915 16.7756C22.3303 12.6441 21.2055 9.0621 18.9419 5.88613ZM8.67765 14.5838C7.68977 14.5838 6.87963 13.7174 6.87963 12.6623C6.87963 11.6071 7.67246 10.7392 8.67765 10.7392C9.68285 10.7392 10.4929 11.6056 10.4756 12.6623C10.4773 13.7174 9.68285 14.5838 8.67765 14.5838ZM15.3223 14.5838C14.3344 14.5838 13.5242 13.7174 13.5242 12.6623C13.5242 11.6071 14.3171 10.7392 15.3223 10.7392C16.3274 10.7392 17.1376 11.6056 17.1203 12.6623C17.1203 13.7174 16.3274 14.5838 15.3223 14.5838Z" fill="#5A65F2"/>
</svg>
